<?xml version="1.0" standalone="no"?><!DOCTYPE svg PUBLIC "-//W3C//DTD SVG 1.1//EN" "http://www.w3.org/Graphics/SVG/1.1/DTD/svg11.dtd"><svg t="1488471414699" class="icon" style="" viewBox="0 0 1024 1024" version="1.1" xmlns="http://www.w3.org/2000/svg" p-id="1359" xmlns:xlink="http://www.w3.org/1999/xlink" width="200" height="200"><defs><style type="text/css"></style></defs><path d="M897 897.001C897 932.347 868.353 961 833.006 961L192.994 961C157.651 961 129 932.345 129 897L129 129c0-35.346 28.652-64 63.997-64L576.5 65l0 254.997c0 35.348 28.653 64.092 63.991 64.203L897 385 897 897.001zM862.984 303.016c4.672 4.672 1.919 2.085 1.919 2.085 6.681 8.78 3.134 15.898-7.897 15.898L671.01 320.999c-16.574 0-30.01-13.429-30.01-30.009L641 104.994c0-11.042 7.248-14.738 15.914-7.889 0 0-2.581-2.762 2.07 1.911L862.984 303.016z" p-id="1360" fill="#ffffff"></path></svg>